<svg width="60" height="60" viewBox="0 0 50 50" fill="none" xmlns="http://www.w3.org/2000/svg">
<rect x="1.75" y="2.75" width="45.5" height="44.5" rx="7.25" fill="#131313" stroke="url(#paint0_linear_59_5)" stroke-width="1.5"/>
<path d="M9.19586 38.9233L11.4642 30.4965C9.63482 27.2138 9.05363 23.3833 9.82723 19.7078C10.6008 16.0322 12.6773 12.7582 15.6757 10.4865C18.6741 8.2148 22.3933 7.0978 26.1506 7.3405C29.9081 7.58317 33.4517 9.16927 36.1313 11.8077C38.811 14.4461 40.4467 17.9599 40.7386 21.7042C41.0306 25.4486 39.9588 29.1725 37.7204 32.1923C35.4819 35.2123 32.2267 37.3258 28.5521 38.1448C24.8775 38.964 21.03 38.4338 17.7155 36.6517L9.19586 38.9233ZM18.1263 33.4985L18.6532 33.8102C21.0538 35.2296 23.8579 35.8169 26.6281 35.4808C29.3985 35.1446 31.9794 33.9037 33.9688 31.9517C35.9585 29.9996 37.2446 27.446 37.6271 24.6887C38.0096 21.9312 37.4669 19.1251 36.0837 16.7075C34.7004 14.29 32.5542 12.3967 29.9794 11.3228C27.4048 10.2489 24.5463 10.0547 21.8494 10.7704C19.1526 11.4862 16.7688 13.0717 15.0696 15.2798C13.3705 17.488 12.4513 20.1948 12.4555 22.9785C12.4532 25.2865 13.0932 27.5498 14.3041 29.5167L14.6345 30.06L13.3664 34.7633L18.1263 33.4985Z" fill="#FBFFFD"/>
<path fill-rule="evenodd" clip-rule="evenodd" d="M30.9144 25.1421C30.6056 24.8936 30.2438 24.7188 29.8571 24.6308C29.4702 24.5429 29.0683 24.544 28.6819 24.6344C28.1014 24.875 27.7263 25.7835 27.3512 26.2379C27.2721 26.3467 27.156 26.4231 27.0244 26.4527C26.8929 26.4821 26.755 26.4629 26.6367 26.3981C24.5115 25.5679 22.7304 24.0454 21.5821 22.0779C21.4842 21.9552 21.4379 21.7992 21.4529 21.6431C21.4679 21.4869 21.5431 21.3427 21.6625 21.2406C22.0808 20.8275 22.3881 20.316 22.5556 19.753C22.5927 19.1321 22.4502 18.5137 22.1448 17.9715C21.9087 17.2112 21.4592 16.5343 20.8498 16.0207C20.5356 15.8796 20.1869 15.8324 19.8463 15.8845C19.5056 15.9367 19.1873 16.086 18.9298 16.3146C18.4828 16.6993 18.128 17.1791 17.8915 17.7186C17.6551 18.2582 17.5429 18.8438 17.5634 19.4323C17.5648 19.7628 17.6068 20.0919 17.6885 20.4121C17.8958 21.1817 18.2148 21.9169 18.6351 22.5946C18.9384 23.1136 19.2692 23.6161 19.6264 24.1C20.7869 25.689 22.2458 27.0383 23.9219 28.0729C24.7631 28.5985 25.6619 29.026 26.601 29.3465C27.5765 29.7877 28.6537 29.9569 29.7177 29.8365C30.324 29.745 30.8987 29.5061 31.3908 29.1411C31.8829 28.7761 32.2775 28.2961 32.5398 27.7433C32.694 27.4092 32.7408 27.036 32.6739 26.6742C32.5131 25.935 31.5217 25.4985 30.9144 25.1421Z" fill="#FBFFFD"/>
<defs>
<linearGradient id="paint0_linear_59_5" x1="24.5" y1="2" x2="24.5" y2="48" gradientUnits="userSpaceOnUse">
<stop stop-color="#770FFF"/>
<stop offset="1" stop-color="#F61CC3"/>
</linearGradient>
</defs>
</svg>
